<?xml version="1.0" encoding="UTF-8" standalone="no"?>
<svg
   xmlns:dc="http://purl.org/dc/elements/1.1/"
   xmlns:cc="http://creativecommons.org/ns#"
   xmlns:rdf="http://www.w3.org/1999/02/22-rdf-syntax-ns#"
   xmlns:svg="http://www.w3.org/2000/svg"
   xmlns="http://www.w3.org/2000/svg"
   viewBox="0 0 481.65332 73.853333"
   xml:space="preserve"
   version="1.1"
   id="svg2"><metadata
     id="metadata8"><rdf:RDF><cc:Work
         rdf:about=""><dc:format>image/svg+xml</dc:format><dc:type
           rdf:resource="http://purl.org/dc/dcmitype/StillImage" /></cc:Work></rdf:RDF></metadata><defs
     id="defs6"><clipPath
       id="clipPath18"
       clipPathUnits="userSpaceOnUse"><path
         id="path20"
         d="m 0,0 3612,0 0,553.906 -3612,0 L 0,0 Z" /></clipPath></defs><g
     transform="matrix(1.3333333,0,0,-1.3333333,0,73.853333)"
     id="g10"><g
       transform="scale(0.1)"
       id="g12"><g
         id="g14"><g
           clip-path="url(#clipPath18)"
           id="g16"><path
             id="path22"
             style="fill:#000000;fill-opacity:1;fill-rule:nonzero;stroke:none"
             d="m 543.941,362.031 c -12.988,0 -25.828,-2.695 -38.503,-8.105 -12.68,-5.391 -25.278,-13.496 -37.801,-24.297 l 0,124.433 -63.621,0 0,-354.042 63.621,0 0,102.597 c 0,27.395 0.941,44.922 2.816,52.586 3.606,14.875 10.059,26.613 19.371,35.227 9.313,8.601 20.465,12.91 33.457,12.91 10.016,0 18.43,-2.586 25.239,-7.754 6.808,-5.156 11.621,-12.988 14.441,-23.477 2.816,-10.488 4.223,-30.515 4.223,-60.097 l 0,-111.992 63.152,0 0,168.808 c 0,29.414 -7.43,51.719 -22.301,66.914 -17.375,17.52 -38.738,26.289 -64.094,26.289" /><path
             id="path24"
             style="fill:#000000;fill-opacity:1;fill-rule:nonzero;stroke:none"
             d="m 839.16,173.973 c -13.332,-13.934 -30.023,-20.887 -50.094,-20.887 -20.066,0 -36.648,6.875 -49.742,20.652 -13.086,13.782 -19.633,31.77 -19.633,53.996 0,21.602 6.618,39.336 19.871,53.184 13.247,13.848 29.829,20.781 49.739,20.781 20.383,0 37.117,-6.855 50.211,-20.547 13.086,-13.691 19.633,-31.504 19.633,-53.418 0,-21.914 -6.665,-39.824 -19.985,-53.761 z m 17.051,169.972 c -21.207,12.063 -43.863,18.086 -67.965,18.086 -33.34,0 -62.84,-11.582 -88.512,-34.746 -29.269,-26.609 -43.906,-59.863 -43.906,-99.785 0,-37.246 12.957,-68.906 38.86,-94.961 25.902,-26.066 57.167,-39.0937 93.792,-39.0937 24.883,0 47.657,5.9102 68.321,17.7267 20.66,11.816 36.976,28.215 48.953,49.18 11.973,20.976 17.957,43.515 17.957,67.617 0,23.945 -5.945,46.25 -17.844,66.914 -11.89,20.664 -28.445,37.012 -49.656,49.062" /><path
             id="path26"
             style="fill:#000000;fill-opacity:1;fill-rule:nonzero;stroke:none"
             d="m 1061.9,355.449 -38.03,0 0,94.149 -64.097,0 0,-94.149 -32.871,0 0,-55.168 32.871,0 0,-200.261 64.097,0 0,200.261 38.03,0 0,55.168" /><path
             id="path28"
             style="fill:#000000;fill-opacity:1;fill-rule:nonzero;stroke:none"
             d="m 1243.02,173.973 c -13.33,-13.934 -30.03,-20.887 -50.09,-20.887 -20.07,0 -36.65,6.875 -49.74,20.652 -13.09,13.782 -19.64,31.77 -19.64,53.996 0,21.602 6.62,39.336 19.87,53.184 13.25,13.848 29.83,20.781 49.74,20.781 20.38,0 37.12,-6.855 50.21,-20.547 13.09,-13.691 19.64,-31.504 19.64,-53.418 0,-21.914 -6.67,-39.824 -19.99,-53.761 z m 17.05,169.972 c -21.2,12.063 -43.86,18.086 -67.97,18.086 -33.33,0 -62.84,-11.582 -88.51,-34.746 -29.26,-26.609 -43.9,-59.863 -43.9,-99.785 0,-37.246 12.96,-68.906 38.86,-94.961 25.9,-26.066 57.17,-39.0937 93.79,-39.0937 24.89,0 47.66,5.9102 68.32,17.7267 20.66,11.816 36.98,28.215 48.95,49.18 11.98,20.976 17.96,43.515 17.96,67.617 0,23.945 -5.94,46.25 -17.84,66.914 -11.9,20.664 -28.45,37.012 -49.66,49.062" /><path
             id="path30"
             style="fill:#000000;fill-opacity:1;fill-rule:nonzero;stroke:none"
             d="m 1528.56,177.969 c -12.91,-13.301 -29.3,-19.961 -49.18,-19.961 -20.35,0 -37.25,6.816 -50.71,20.43 -13.46,13.613 -20.19,31.066 -20.19,52.355 0,20.496 6.57,37.527 19.72,51.062 13.15,13.536 29.82,20.313 50.01,20.313 20.5,0 37.25,-6.66 50.24,-19.961 12.99,-13.301 19.49,-30.605 19.49,-51.887 0,-21.601 -6.47,-39.05 -19.38,-52.351 z m 16.09,149.316 c -13.15,12.363 -26.26,21.25 -39.33,26.641 -13.06,5.41 -26.96,8.105 -41.67,8.105 -31.46,0 -58.54,-11.113 -81.23,-33.34 -25.04,-24.57 -37.57,-57.129 -37.57,-97.668 0,-37.878 11.82,-69.179 35.46,-93.914 23.63,-24.726 52.59,-37.089 86.86,-37.089 15.65,0 29.66,2.46 42.03,7.402 12.36,4.922 24.18,13.027 35.45,24.297 0,-20.664 -2.16,-35.2151 -6.46,-43.6721 -4.3,-8.4571 -11.7,-15.3321 -22.18,-20.6641 -10.49,-5.3125 -24.34,-7.9805 -41.56,-7.9805 -13.46,0 -25.12,1.836 -34.98,5.5196 -9.86,3.6719 -17.92,9.1211 -24.18,16.3086 l -70.67,0 c 5.63,-17.3633 14.32,-32.1211 26.06,-44.25 11.74,-12.1289 26.14,-21.3164 43.2,-27.58597 C 1430.94,3.13672 1451.99,0 1477.03,0 c 46.96,0 82.1,13.7773 105.42,41.3281 17.36,20.3516 26.06,52.1172 26.06,95.3129 l 0,218.808 -63.86,0 0,-28.164" /><path
             id="path32"
             style="fill:#000000;fill-opacity:1;fill-rule:nonzero;stroke:none"
             d="m 1745.29,362.031 c -11.74,0 -22.54,-3.281 -32.4,-9.863 -9.85,-6.574 -17.76,-16.191 -23.71,-28.875 l 0,32.156 -54.93,0 0,-255.429 63.61,0 0,103.3 -0.23,12.442 c 0,35.683 3.41,59.629 10.21,71.843 6.82,12.207 15.15,18.313 25,18.313 4.87,0 11.04,-1.875 18.56,-5.637 l 19.96,55.168 c -9.08,4.395 -17.78,6.582 -26.07,6.582" /><path
             id="path34"
             style="fill:#000000;fill-opacity:1;fill-rule:nonzero;stroke:none"
             d="m 1950.46,173.152 c -13.26,-14.011 -29.95,-21.015 -50.08,-21.015 -19.5,0 -35.92,7.121 -49.26,21.371 -13.34,14.246 -20,32.39 -20,54.461 0,21.914 6.56,39.883 19.65,53.886 13.11,14.004 29.56,21.016 49.38,21.016 20.28,0 37.05,-6.894 50.31,-20.664 13.25,-13.769 19.88,-31.777 19.88,-54.004 0,-22.695 -6.63,-41.035 -19.88,-55.051 z m 17.07,154.133 c -11.42,11.582 -23.85,20.274 -37.3,26.055 -13.43,5.801 -27.82,8.691 -43.13,8.691 -33.31,0 -61.6,-12.597 -84.89,-37.793 -23.29,-25.207 -34.95,-57.527 -34.95,-96.972 0,-38.028 12.05,-69.844 36.11,-95.43 24.08,-25.598 52.62,-38.3907 85.6,-38.3907 14.69,0 28.33,2.6289 40.92,7.8637 12.58,5.242 25.13,13.808 37.64,25.703 l 0,-26.992 64.09,0 0,255.429 -64.09,0 0,-28.164" /><path
             id="path36"
             style="fill:#000000;fill-opacity:1;fill-rule:nonzero;stroke:none"
             d="m 2252.8,173.508 c -13.38,-14.25 -29.85,-21.371 -49.41,-21.371 -20.2,0 -36.94,7.004 -50.25,21.015 -13.31,14.016 -19.95,32.356 -19.95,55.051 0,22.227 6.64,40.235 19.95,54.004 13.31,13.77 30.05,20.664 50.25,20.664 20.03,0 36.62,-7.012 49.76,-21.016 13.15,-14.003 19.73,-31.972 19.73,-53.886 0,-22.071 -6.7,-40.215 -20.08,-54.461 z m -36.03,188.523 c -15.33,0 -29.74,-2.89 -43.21,-8.691 -13.45,-5.781 -25.97,-14.473 -37.55,-26.055 l 0,28.164 -63.63,0 0,-348.86697 63.63,0 0,120.42997 c 12.52,-11.895 25.11,-20.461 37.79,-25.703 12.68,-5.2348 26.38,-7.8637 41.09,-7.8637 33.03,0 61.58,12.7927 85.69,38.3907 24.11,25.586 36.16,57.402 36.16,95.43 0,39.445 -11.66,71.765 -34.98,96.972 -23.32,25.196 -51.65,37.793 -84.99,37.793" /><path
             id="path38"
             style="fill:#000000;fill-opacity:1;fill-rule:nonzero;stroke:none"
             d="m 2505.91,362.031 c -12.99,0 -25.82,-2.695 -38.5,-8.105 -12.67,-5.391 -25.27,-13.496 -37.79,-24.297 l 0,124.433 -63.63,0 0,-354.042 63.63,0 0,102.597 c 0,27.395 0.94,44.922 2.81,52.586 3.6,14.875 10.06,26.613 19.37,35.227 9.31,8.601 20.47,12.91 33.45,12.91 10.02,0 18.43,-2.586 25.25,-7.754 6.79,-5.156 11.62,-12.988 14.43,-23.477 2.81,-10.488 4.22,-30.515 4.22,-60.097 l 0,-111.992 63.16,0 0,168.808 c 0,29.414 -7.44,51.719 -22.3,66.914 -17.37,17.52 -38.74,26.289 -64.1,26.289" /><path
             id="path40"
             style="fill:#000000;fill-opacity:1;fill-rule:nonzero;stroke:none"
             d="m 2733.76,195.176 -66.35,160.273 -65.5,0 97.1,-236.367 -52.53,-112.49997 66.21,0 159.98,348.86697 -65.69,0 -73.22,-160.273" /><path
             id="path42"
             style="fill:#000000;fill-opacity:1;fill-rule:nonzero;stroke:none"
             d="m 2950.87,450.312 -32.87,0 0,-94.863 -44.85,0 0,-28.398 44.85,0 0,-227.031 32.87,0 0,227.031 52.12,0 0,28.398 -52.12,0 0,94.863" /><path
             id="path44"
             style="fill:#000000;fill-opacity:1;fill-rule:nonzero;stroke:none"
             d="m 3239.44,174.148 c -8.67,-15.476 -21.06,-27.742 -37.15,-36.812 -16.11,-9.074 -33.15,-13.606 -51.13,-13.606 -17.83,0 -34.52,4.571 -50.08,13.731 -15.55,9.141 -27.94,21.914 -37.16,38.34 -9.22,16.406 -13.83,33.601 -13.83,51.582 0,18.133 4.57,35.332 13.71,51.582 9.15,16.269 21.45,28.894 36.94,37.89 15.47,8.985 32.36,13.477 50.66,13.477 28.44,0 52.4,-9.922 71.87,-29.785 19.46,-19.856 29.19,-44.551 29.19,-74.102 0,-19.394 -4.33,-36.816 -13.02,-52.297 z m 10.91,134.348 c -12.83,17.852 -27.74,31.231 -44.72,40.156 -16.99,8.914 -35.96,13.379 -56.94,13.379 -36.31,0 -67.38,-13.066 -93.2,-39.211 -25.83,-26.14 -38.74,-57.597 -38.74,-94.382 0,-37.559 12.79,-69.454 38.39,-95.665 25.58,-26.222 56.46,-39.3277 92.61,-39.3277 20.36,0 39.1,4.2305 56.23,12.6757 17.14,8.449 32.6,21.055 46.37,37.805 l 0,-43.906 32.4,0 0,255.429 -32.4,0 0,-46.953" /><path
             id="path46"
             style="fill:#000000;fill-opacity:1;fill-rule:nonzero;stroke:none"
             d="m 3327.72,100.02 32.8828,0 0,354.043 -32.8828,0 0,-354.043 z" /><path
             id="path48"
             style="fill:#000000;fill-opacity:1;fill-rule:nonzero;stroke:none"
             d="m 3463.81,233.613 140.4,121.836 -48.27,0 -118.43,-103.086 0,201.699 -32.86,0 0,-354.042 32.86,0 0,115.007 128.65,-115.007 46.26,0 -148.61,133.593" /><path
             id="path50"
             style="fill:#198bff;fill-opacity:1;fill-rule:nonzero;stroke:none"
             d="m 183.578,280.918 c 13.246,13.848 29.828,20.781 49.742,20.781 20.379,0 37.114,-6.855 50.211,-20.547 13.086,-13.691 19.633,-31.504 19.633,-53.418 0,-21.914 -6.664,-39.824 -19.984,-53.761 -13.332,-13.934 -30.028,-20.887 -50.094,-20.887 -20.066,0 -36.648,6.875 -49.742,20.652 -13.086,13.782 -19.633,31.77 -19.633,53.996 0,21.602 6.617,39.336 19.867,53.184 z M 232.5,93.4453 c 24.883,0 47.656,5.9102 68.32,17.7267 20.66,11.816 36.977,28.215 48.95,49.18 11.972,20.976 17.96,43.515 17.96,67.617 0,23.945 -5.949,46.25 -17.843,66.914 -11.895,20.664 -28.446,37.012 -49.657,49.062 -21.207,12.063 -43.863,18.086 -67.964,18.086 -33.34,0 -62.84,-11.582 -88.512,-34.746 -29.215,-26.562 -43.836,-59.734 -43.8946,-99.551 l -0.0117,0 0,-227.734 63.8633,0 0,112.637 C 184.047,99.9414 206.938,93.4453 232.5,93.4453" /><path
             id="path52"
             style="fill:#000000;fill-opacity:1;fill-rule:nonzero;stroke:none"
             d="m 199.895,0 267.742,0 0,63.8672 -267.742,0 0,-63.8672 z" /><path
             id="path54"
             style="fill:#000000;fill-opacity:1;fill-rule:nonzero;stroke:none"
             d="m 367.73,390.195 0,63.867 L 0,454.062 0,0 l 63.8633,0 0,390.195 303.8667,0" /><path
             id="path56"
             style="fill:#000000;fill-opacity:1;fill-rule:nonzero;stroke:none"
             d="m 303.164,490.039 62.957,0 -31.933,63.867 -170.477,0 -31.934,-63.867 171.387,0" /></g></g></g></g></svg>